<?xml version="1.0" encoding="UTF-8" standalone="no"?>
<!DOCTYPE svg PUBLIC "-//W3C//DTD SVG 1.1//EN" "http://www.w3.org/Graphics/SVG/1.1/DTD/svg11.dtd">
<svg version="1.1" xmlns="http://www.w3.org/2000/svg" xmlns:xlink="http://www.w3.org/1999/xlink" preserveAspectRatio="xMidYMid meet" viewBox="4.5813953488372015 266.2171943132267 632.8372093023255 274.6976744186043" width="628.84" height="270.7"><defs><path d="M625.49 267.22C630.42 267.22 634.42 271.21 634.42 276.14C634.42 328.5 634.42 476.63 634.42 528.99C634.42 533.92 630.42 537.91 625.49 537.91C501.51 537.91 138.49 537.91 14.51 537.91C9.58 537.91 5.58 533.92 5.58 528.99C5.58 476.63 5.58 328.5 5.58 276.14C5.58 271.21 9.58 267.22 14.51 267.22C138.49 267.22 501.51 267.22 625.49 267.22Z" id="b1q0mRPMHA"></path><path d="M608.56 502.28C613.07 502.26 616.74 505.91 616.76 510.43C616.76 512.13 616.75 509.08 616.76 510.78C616.77 515.3 613.12 518.97 608.61 518.98C491.54 519.3 148.51 520.26 31.44 520.58C26.93 520.59 23.26 516.94 23.24 512.43C23.24 510.72 23.25 513.78 23.24 512.07C23.23 507.56 26.88 503.89 31.39 503.88C148.46 503.55 491.49 502.6 608.56 502.28Z" id="c6ezftqupd"></path><path d="M541.39 429.95C545.65 429.95 549.11 433.4 549.11 437.67C549.11 452.42 549.11 488.96 549.11 503.71C549.11 507.97 545.65 511.43 541.39 511.43C531.76 511.43 510.61 511.43 500.99 511.43C496.72 511.43 493.27 507.97 493.27 503.71C493.27 488.96 493.27 452.42 493.27 437.67C493.27 433.4 496.72 429.95 500.99 429.95C510.61 429.95 531.76 429.95 541.39 429.95Z" id="crtAx1Exg"></path><path d="M138.29 477.94C138.85 477.94 139.31 478.39 139.31 478.95C139.31 483.83 139.31 497.42 139.31 502.29C139.31 502.86 138.85 503.31 138.29 503.31C137.82 503.31 137.42 503.31 136.95 503.31C136.39 503.31 135.94 502.86 135.94 502.29C135.94 497.42 135.94 483.83 135.94 478.95C135.94 478.39 136.39 477.94 136.95 477.94C137.42 477.94 137.82 477.94 138.29 477.94Z" id="a1rXVe80Ll"></path><path d="M441.72 329.89L444.79 330.21L447.83 330.64L450.82 331.19L453.78 331.86L456.69 332.63L459.55 333.53L462.37 334.52L465.13 335.63L467.83 336.84L470.49 338.15L473.08 339.55L475.61 341.06L478.07 342.65L480.47 344.34L482.8 346.12L485.06 347.98L487.24 349.93L489.35 351.96L491.38 354.07L493.32 356.25L495.19 358.51L496.96 360.84L498.65 363.23L500.25 365.7L501.75 368.23L503.16 370.82L504.47 373.47L505.68 376.18L506.78 378.94L507.78 381.75L508.67 384.62L509.45 387.53L510.12 390.48L510.67 393.48L511.1 396.51L511.41 399.59L511.6 402.7L511.66 405.84L511.66 415.11L436.75 415.11L436.75 401.99L436.71 400.03L436.59 398.09L436.39 396.17L436.12 394.28L435.78 392.41L435.37 390.57L434.88 388.75L434.32 386.97L433.7 385.21L433.01 383.49L432.26 381.8L431.44 380.15L430.57 378.54L429.63 376.96L428.63 375.42L427.58 373.93L426.47 372.47L425.31 371.07L424.1 369.7L422.83 368.39L421.52 367.13L420.15 365.91L418.75 364.75L417.29 363.64L415.8 362.59L414.26 361.59L412.68 360.66L411.07 359.78L409.42 358.96L407.73 358.21L406.01 357.52L404.25 356.9L402.47 356.34L400.65 355.86L398.81 355.44L396.94 355.1L395.05 354.83L393.13 354.63L391.19 354.51L389.23 354.48L246.63 354.48L244.71 354.51L242.81 354.63L240.93 354.82L239.07 355.09L237.24 355.42L235.43 355.83L233.65 356.31L231.9 356.85L230.18 357.46L228.49 358.14L226.83 358.88L225.21 359.68L223.63 360.54L222.08 361.46L220.57 362.43L219.11 363.47L217.68 364.55L216.3 365.69L214.96 366.88L213.68 368.13L212.43 369.41L211.24 370.75L210.1 372.13L209.02 373.56L207.98 375.02L207.01 376.53L206.09 378.08L205.23 379.66L204.43 381.28L203.69 382.94L203.01 384.63L202.4 386.35L201.86 388.1L201.38 389.88L200.97 391.69L200.64 393.52L200.37 395.38L200.18 397.26L200.06 399.16L200.03 401.08L200.03 415.11L132.03 415.11L132.03 404.38L132.09 401.3L132.28 398.25L132.58 395.24L133.01 392.26L133.55 389.32L134.2 386.42L134.96 383.57L135.84 380.76L136.82 378L137.9 375.29L139.09 372.63L140.37 370.03L141.75 367.49L143.23 365.01L144.79 362.59L146.45 360.24L148.19 357.96L150.02 355.74L151.93 353.6L153.92 351.53L155.99 349.54L158.13 347.63L160.34 345.8L162.63 344.06L164.98 342.41L167.4 340.84L169.88 339.36L172.42 337.98L175.02 336.7L177.68 335.51L180.39 334.43L183.14 333.45L185.95 332.58L188.81 331.81L191.71 331.16L194.65 330.62L197.62 330.19L200.64 329.89L203.69 329.7L206.77 329.64L435.47 329.64L438.61 329.7L441.72 329.89Z" id="cotCyz261"></path><path d="M293.96 359.33C304.5 359.33 313.05 367.88 313.05 378.42C313.05 389.42 313.05 411.44 313.05 424.47C313.05 429.42 309.03 433.43 304.08 433.43C278 433.43 208.71 433.43 182.62 433.43C177.67 433.43 173.66 429.42 173.66 424.47C173.66 411.44 173.66 390.47 173.66 379.73C173.66 368.47 182.79 359.33 194.06 359.33C217.86 359.33 269.9 359.33 293.96 359.33Z" id="bybffPyoq"></path><path d="M327.19 355.37L345.34 331.7L380.84 331.7L362.69 355.37L327.19 355.37Z" id="b1RM629Cdz"></path><path d="M521.86 477.94C522.42 477.94 522.88 478.39 522.88 478.95C522.88 483.83 522.88 497.42 522.88 502.29C522.88 502.86 522.42 503.31 521.86 503.31C521.39 503.31 520.99 503.31 520.51 503.31C519.95 503.31 519.5 502.86 519.5 502.29C519.5 497.42 519.5 483.83 519.5 478.95C519.5 478.39 519.95 477.94 520.51 477.94C520.99 477.94 521.39 477.94 521.86 477.94Z" id="a12EH5QqRx"></path><path d="M531.31 477.94C531.87 477.94 532.32 478.39 532.32 478.95C532.32 483.83 532.32 497.42 532.32 502.29C532.32 502.86 531.87 503.31 531.31 503.31C530.83 503.31 530.43 503.31 529.96 503.31C529.4 503.31 528.94 502.86 528.94 502.29C528.94 497.42 528.94 483.83 528.94 478.95C528.94 478.39 529.4 477.94 529.96 477.94C530.43 477.94 530.83 477.94 531.31 477.94Z" id="a3Xc4maFZZ"></path><path d="M506.05 477.94C506.62 477.94 507.07 478.39 507.07 478.95C507.07 483.83 507.07 497.42 507.07 502.29C507.07 502.86 506.62 503.31 506.05 503.31C505.58 503.31 505.18 503.31 504.71 503.31C504.15 503.31 503.69 502.86 503.69 502.29C503.69 497.42 503.69 483.83 503.69 478.95C503.69 478.39 504.15 477.94 504.71 477.94C505.18 477.94 505.58 477.94 506.05 477.94Z" id="a1bAVbFapd"></path><path d="M452.73 359.33C464.49 359.33 474.03 368.87 474.03 380.63C474.03 391.19 474.03 411.37 474.03 424.38C474.03 429.38 469.97 433.43 464.97 433.43C438.28 433.43 367.23 433.43 340.53 433.43C335.53 433.43 331.48 429.38 331.48 424.38C331.48 411.37 331.48 391.91 331.48 381.53C331.48 369.27 341.42 359.33 353.68 359.33C377.75 359.33 428.48 359.33 452.73 359.33Z" id="a2oS9O0Yej"></path><path d="M538.87 477.94C539.43 477.94 539.89 478.39 539.89 478.95C539.89 483.83 539.89 497.42 539.89 502.29C539.89 502.86 539.43 503.31 538.87 503.31C538.4 503.31 538 503.31 537.53 503.31C536.96 503.31 536.51 502.86 536.51 502.29C536.51 497.42 536.51 483.83 536.51 478.95C536.51 478.39 536.96 477.94 537.53 477.94C538 477.94 538.4 477.94 538.87 477.94Z" id="j5Cc9H1Rz6"></path><path d="M213.86 413.18L201.6 413.18L213.86 397.19L213.86 397.54L213.86 413.18ZM256.02 355.37L254.28 355.41L252.56 355.51L250.86 355.69L249.18 355.93L247.52 356.23L245.89 356.6L244.73 356.91L264.05 331.7L336.91 331.7L318.76 355.37L256.02 355.37Z" id="d6b2T8WoCz"></path><path d="M483.2 388.91C492.41 388.91 499.87 396.37 499.87 405.57C499.87 409.65 499.87 413.14 499.87 419.2C499.87 422.93 496.85 425.95 493.12 425.95C424.4 425.95 224.97 425.95 156.25 425.95C152.52 425.95 149.5 422.93 149.5 419.2C149.5 413.14 149.5 408.6 149.5 404.26C149.5 395.78 156.37 388.91 164.85 388.91C231.85 388.91 416.46 388.91 483.2 388.91Z" id="bxpvA5Eei"></path><path d="M514.03 477.94C514.59 477.94 515.04 478.39 515.04 478.95C515.04 483.83 515.04 497.42 515.04 502.29C515.04 502.86 514.59 503.31 514.03 503.31C513.55 503.31 513.15 503.31 512.68 503.31C512.12 503.31 511.66 502.86 511.66 502.29C511.66 497.42 511.66 483.83 511.66 478.95C511.66 478.39 512.12 477.94 512.68 477.94C513.15 477.94 513.55 477.94 514.03 477.94Z" id="a3xprbkF2"></path><path d="M490.16 405.72C505.56 405.72 518.04 418.2 518.04 433.59C518.04 441.01 518.04 438.97 518.04 447.29C518.04 460.21 507.56 470.69 494.64 470.69C420.82 470.69 225.41 470.69 152.25 470.69C137.51 470.69 125.55 458.73 125.55 443.99C125.55 436.34 125.55 442.46 125.55 435.4C125.55 419.01 138.85 405.72 155.24 405.72C227.8 405.72 417.24 405.72 490.16 405.72Z" id="bY6ynHsYy"></path><path d="M140.8 429.95C145.06 429.95 148.5 433.39 148.5 437.65C148.5 452.4 148.5 488.97 148.5 503.73C148.5 507.98 145.06 511.43 140.8 511.43C131.2 511.43 110.1 511.43 100.5 511.43C96.25 511.43 92.8 507.98 92.8 503.73C92.8 488.97 92.8 452.4 92.8 437.65C92.8 433.39 96.25 429.95 100.5 429.95C110.1 429.95 131.2 429.95 140.8 429.95Z" id="aGudlBjo0"></path><path d="M511.98 422.25C520.81 422.25 527.97 429.4 527.97 438.24C527.97 448.03 527.97 454.55 527.97 462.63C527.97 476.21 516.96 487.22 503.39 487.22C425.83 487.22 220.53 487.22 143.67 487.22C128.18 487.22 115.62 474.66 115.62 459.17C115.62 451.78 115.62 447.58 115.62 437.67C115.62 429.15 122.53 422.25 131.05 422.25C210.43 422.25 432.71 422.25 511.98 422.25Z" id="c1mOz9jUp3"></path><path d="M130.74 477.94C131.3 477.94 131.76 478.39 131.76 478.95C131.76 483.83 131.76 497.42 131.76 502.29C131.76 502.86 131.3 503.31 130.74 503.31C130.27 503.31 129.88 503.31 129.41 503.31C128.84 503.31 128.39 502.86 128.39 502.29C128.39 497.42 128.39 483.83 128.39 478.95C128.39 478.39 128.84 477.94 129.41 477.94C129.88 477.94 130.27 477.94 130.74 477.94Z" id="bJ2mbaBCI"></path><path d="M105.55 477.94C106.11 477.94 106.57 478.39 106.57 478.95C106.57 483.83 106.57 497.42 106.57 502.29C106.57 502.86 106.11 503.31 105.55 503.31C105.08 503.31 104.69 503.31 104.21 503.31C103.65 503.31 103.2 502.86 103.2 502.29C103.2 497.42 103.2 483.83 103.2 478.95C103.2 478.39 103.65 477.94 104.21 477.94C104.69 477.94 105.08 477.94 105.55 477.94Z" id="d1YN84gbI"></path><path d="M113.51 477.94C114.07 477.94 114.52 478.39 114.52 478.95C114.52 483.83 114.52 497.42 114.52 502.29C114.52 502.86 114.07 503.31 113.51 503.31C113.04 503.31 112.64 503.31 112.17 503.31C111.61 503.31 111.15 502.86 111.15 502.29C111.15 497.42 111.15 483.83 111.15 478.95C111.15 478.39 111.61 477.94 112.17 477.94C112.64 477.94 113.04 477.94 113.51 477.94Z" id="d3oSnVcVOf"></path><path d="M475.08 482.17C474.78 484.19 472.85 485.6 470.76 485.31C468.68 485.02 467.23 483.14 467.53 481.12C467.82 479.1 469.76 477.69 471.84 477.98C473.92 478.27 475.37 480.14 475.08 482.17Z" id="a1zaFgJRat"></path><path d="M122.01 477.94C122.57 477.94 123.02 478.39 123.02 478.95C123.02 483.83 123.02 497.42 123.02 502.29C123.02 502.86 122.57 503.31 122.01 503.31C121.54 503.31 121.14 503.31 120.67 503.31C120.11 503.31 119.65 502.86 119.65 502.29C119.65 497.42 119.65 483.83 119.65 478.95C119.65 478.39 120.11 477.94 120.67 477.94C121.14 477.94 121.54 477.94 122.01 477.94Z" id="e1NRSyTX64"></path><path d="M185.14 470.69L185.14 405.72L211.62 405.72L211.62 470.69L185.14 470.69Z" id="a264BX6cYN"></path><path d="M154.92 470.69L154.92 405.72L181.39 405.72L181.39 470.69L154.92 470.69Z" id="f3cZmkmPTA"></path><path d="M120.17 474.88C108.68 474.88 99.37 465.57 99.37 454.09C99.37 446.34 99.37 443.37 99.37 435.49C99.37 424.37 108.39 415.35 119.51 415.35C204.04 415.35 439.31 415.35 524.3 415.35C534.16 415.35 542.16 423.34 542.16 433.21C542.16 441.54 542.16 447.64 542.16 455.71C542.16 466.3 533.57 474.88 522.99 474.88C438.26 474.88 204.57 474.88 120.17 474.88Z" id="a3mmOgLHoF"></path><path d="M154.92 474.88L154.92 409.91L181.39 409.91L181.39 474.88L154.92 474.88Z" id="aafXudFjiV"></path><path d="M185.14 474.88L185.14 409.91L211.62 409.91L211.62 474.88L185.14 474.88Z" id="c1fk6tLjDQ"></path><path d="M511.44 425.02C520 425.02 526.94 431.96 526.94 440.52C526.94 443.78 526.94 438.37 526.94 441.71C526.94 450.04 520.19 456.8 511.85 456.8C432.4 456.8 209.13 456.8 129.68 456.8C121.34 456.8 114.59 450.04 114.59 441.71C114.59 438.37 114.59 443.34 114.59 439.98C114.59 431.72 121.29 425.02 129.55 425.02C209.03 425.02 432.07 425.02 511.44 425.02Z" id="b2MtV8rOUH"></path><path d="M172.25 440.91C172.25 447.36 167.15 452.59 160.87 452.59C154.6 452.59 149.5 447.36 149.5 440.91C149.5 434.46 154.6 429.23 160.87 429.23C167.15 429.23 172.25 434.46 172.25 440.91Z" id="c1NyYhQBpg"></path><path d="M143.4 440.91C143.4 447.36 138.31 452.59 132.03 452.59C125.75 452.59 120.65 447.36 120.65 440.91C120.65 434.46 125.75 429.23 132.03 429.23C138.31 429.23 143.4 434.46 143.4 440.91Z" id="l1ptkh7zCi"></path><path d="M168.15 440.91C168.15 445.04 164.89 448.39 160.87 448.39C156.86 448.39 153.59 445.04 153.59 440.91C153.59 436.78 156.86 433.43 160.87 433.43C164.89 433.43 168.15 436.78 168.15 440.91Z" id="a1iasp9mxs"></path><path d="M521.19 440.91C521.19 447.36 515.85 452.59 509.27 452.59C502.68 452.59 497.34 447.36 497.34 440.91C497.34 434.46 502.68 429.23 509.27 429.23C515.85 429.23 521.19 434.46 521.19 440.91Z" id="gs9W3s272"></path><path d="M491.33 440.91C491.33 447.36 485.99 452.59 479.41 452.59C472.83 452.59 467.49 447.36 467.49 440.91C467.49 434.46 472.83 429.23 479.41 429.23C485.99 429.23 491.33 434.46 491.33 440.91Z" id="b99WNMV3U"></path><path d="M139.31 440.91C139.31 445.04 136.05 448.39 132.03 448.39C128.01 448.39 124.75 445.04 124.75 440.91C124.75 436.78 128.01 433.43 132.03 433.43C136.05 433.43 139.31 436.78 139.31 440.91Z" id="b3OYFlbhWc"></path><path d="M487.04 440.91C487.04 445.04 483.62 448.39 479.41 448.39C475.2 448.39 471.78 445.04 471.78 440.91C471.78 436.78 475.2 433.43 479.41 433.43C483.62 433.43 487.04 436.78 487.04 440.91Z" id="bQTHeOrN3"></path><path d="M516.9 440.91C516.9 445.04 513.48 448.39 509.27 448.39C505.05 448.39 501.63 445.04 501.63 440.91C501.63 436.78 505.05 433.43 509.27 433.43C513.48 433.43 516.9 436.78 516.9 440.91Z" id="a2AKC5eogj"></path><path d="M400.14 419.47C409.1 419.47 416.37 426.73 416.37 435.7C416.37 442.7 416.37 446.55 416.37 453.32C416.37 462.91 408.59 470.69 399 470.69C363.93 470.69 276.06 470.69 240.98 470.69C231.4 470.69 223.63 462.92 223.63 453.34C223.63 446.57 223.63 443.58 223.63 436.8C223.63 427.23 231.39 419.47 240.97 419.47C276.05 419.47 364.84 419.47 400.14 419.47Z" id="aGXmP8xTh"></path><path d="M236.67 426.6C237.95 426.6 238.98 427.63 238.98 428.91C238.98 435.86 238.98 454.38 238.98 461.32C238.98 462.6 237.95 463.63 236.67 463.63C236.2 463.63 237.13 463.63 236.67 463.63C235.39 463.63 234.35 462.6 234.35 461.32C234.35 454.38 234.35 435.86 234.35 428.91C234.35 427.63 235.39 426.6 236.67 426.6C237.13 426.6 236.2 426.6 236.67 426.6Z" id="atrkjuX1T"></path><path d="M283.7 426.6C284.98 426.6 286.02 427.63 286.02 428.91C286.02 435.86 286.02 454.38 286.02 461.32C286.02 462.6 284.98 463.63 283.7 463.63C283.24 463.63 284.17 463.63 283.7 463.63C282.43 463.63 281.39 462.6 281.39 461.32C281.39 454.38 281.39 435.86 281.39 428.91C281.39 427.63 282.43 426.6 283.7 426.6C284.17 426.6 283.24 426.6 283.7 426.6Z" id="c1P4mkHvMU"></path><path d="M305.6 426.6C306.88 426.6 307.91 427.63 307.91 428.91C307.91 435.86 307.91 454.38 307.91 461.32C307.91 462.6 306.88 463.63 305.6 463.63C305.14 463.63 306.06 463.63 305.6 463.63C304.32 463.63 303.28 462.6 303.28 461.32C303.28 454.38 303.28 435.86 303.28 428.91C303.28 427.63 304.32 426.6 305.6 426.6C306.06 426.6 305.14 426.6 305.6 426.6Z" id="a1neiGZxp"></path><path d="M331.48 426.6C332.76 426.6 333.8 427.63 333.8 428.91C333.8 435.86 333.8 454.38 333.8 461.32C333.8 462.6 332.76 463.63 331.48 463.63C331.02 463.63 331.94 463.63 331.48 463.63C330.2 463.63 329.17 462.6 329.17 461.32C329.17 454.38 329.17 435.86 329.17 428.91C329.17 427.63 330.2 426.6 331.48 426.6C331.94 426.6 331.02 426.6 331.48 426.6Z" id="e1TZv370aS"></path><path d="M357.22 426.6C358.5 426.6 359.54 427.63 359.54 428.91C359.54 435.86 359.54 454.38 359.54 461.32C359.54 462.6 358.5 463.63 357.22 463.63C356.76 463.63 357.69 463.63 357.22 463.63C355.94 463.63 354.91 462.6 354.91 461.32C354.91 454.38 354.91 435.86 354.91 428.91C354.91 427.63 355.94 426.6 357.22 426.6C357.69 426.6 356.76 426.6 357.22 426.6Z" id="d4X3IpYRO"></path><path d="M382.04 426.6C383.32 426.6 384.35 427.63 384.35 428.91C384.35 435.86 384.35 454.38 384.35 461.32C384.35 462.6 383.32 463.63 382.04 463.63C381.57 463.63 382.5 463.63 382.04 463.63C380.76 463.63 379.72 462.6 379.72 461.32C379.72 454.38 379.72 435.86 379.72 428.91C379.72 427.63 380.76 426.6 382.04 426.6C382.5 426.6 381.57 426.6 382.04 426.6Z" id="eJJmoaBo"></path><path d="M403.28 426.6C404.56 426.6 405.6 427.63 405.6 428.91C405.6 435.86 405.6 454.38 405.6 461.32C405.6 462.6 404.56 463.63 403.28 463.63C402.82 463.63 403.75 463.63 403.28 463.63C402.01 463.63 400.97 462.6 400.97 461.32C400.97 454.38 400.97 435.86 400.97 428.91C400.97 427.63 402.01 426.6 403.28 426.6C403.75 426.6 402.82 426.6 403.28 426.6Z" id="a6CRoXbfm"></path><path d="M261.3 426.6C262.57 426.6 263.61 427.63 263.61 428.91C263.61 435.86 263.61 454.38 263.61 461.32C263.61 462.6 262.57 463.63 261.3 463.63C260.83 463.63 261.76 463.63 261.3 463.63C260.02 463.63 258.98 462.6 258.98 461.32C258.98 454.38 258.98 435.86 258.98 428.91C258.98 427.63 260.02 426.6 261.3 426.6C261.76 426.6 260.83 426.6 261.3 426.6Z" id="a1lD2niqQ"></path><path d="M172.21 482.17C171.91 484.19 169.99 485.6 167.91 485.31C165.83 485.02 164.38 483.14 164.68 481.12C164.98 479.1 166.9 477.69 168.98 477.98C171.06 478.27 172.51 480.14 172.21 482.17Z" id="eiIWQqK"></path><path d="M366.23 477.94C369.18 477.94 371.57 480.33 371.57 483.28C371.57 486.88 371.57 493.57 371.57 497.48C371.57 499.59 369.86 501.3 367.75 501.3C348.05 501.3 295.44 501.3 276.4 501.3C272.46 501.3 269.26 498.1 269.26 494.16C269.26 490.91 269.26 487.85 269.26 484.49C269.26 480.87 272.19 477.94 275.81 477.94C294.96 477.94 346.84 477.94 366.23 477.94Z" id="a2DfYiGxj"></path><path d="M364.44 481.64C365.98 481.64 367.22 482.89 367.22 484.42C367.22 484.98 367.22 483.87 367.22 484.42C367.22 485.95 365.98 487.2 364.44 487.2C346.67 487.2 296.11 487.2 278.33 487.2C276.8 487.2 275.56 485.95 275.56 484.42C275.56 483.87 275.56 484.98 275.56 484.42C275.56 482.89 276.8 481.64 278.33 481.64C296.11 481.64 346.67 481.64 364.44 481.64Z" id="a6iNULicc"></path><path d="M197.6 440.95C201.82 440.89 205.3 444.27 205.36 448.5C205.49 457.21 205.77 475.87 205.9 484.63C205.96 488.73 202.68 492.11 198.58 492.17C197.15 492.19 200.33 492.14 198.92 492.16C194.79 492.22 191.4 488.92 191.34 484.8C191.21 476.05 190.93 457.24 190.8 448.48C190.74 444.38 194.02 441 198.12 440.95C199.55 440.93 196.21 440.97 197.6 440.95Z" id="g48dwDDcH"></path><path d="M442.9 440.93C447.12 440.87 450.6 444.24 450.66 448.47C450.79 457.18 451.07 475.85 451.2 484.6C451.26 488.7 447.98 492.08 443.88 492.14C442.45 492.16 445.61 492.11 444.18 492.13C440.06 492.19 436.67 488.9 436.61 484.77C436.48 476.02 436.2 457.21 436.07 448.45C436.01 444.35 439.28 440.98 443.39 440.92C444.82 440.9 441.51 440.94 442.9 440.93Z" id="btjAzrIhx"></path><path d="M108.3 400.58C112.34 400.58 115.62 403.86 115.62 407.9C115.62 411.51 115.62 415.01 115.62 418.62C115.62 422.67 112.34 425.95 108.3 425.95C98.59 425.95 76.81 425.95 67.11 425.95C63.06 425.95 59.78 422.67 59.78 418.62C59.78 415.01 59.78 411.51 59.78 407.9C59.78 403.86 63.06 400.58 67.11 400.58C76.81 400.58 98.59 400.58 108.3 400.58Z" id="bikxvLDYx"></path><path d="M577.46 401.23C581.5 401.23 584.78 404.5 584.78 408.55C584.78 412.16 584.78 415.66 584.78 419.27C584.78 423.32 581.5 426.6 577.46 426.6C567.75 426.6 545.97 426.6 536.27 426.6C532.22 426.6 528.94 423.32 528.94 419.27C528.94 415.66 528.94 412.16 528.94 408.55C528.94 404.5 532.22 401.23 536.27 401.23C545.97 401.23 567.75 401.23 577.46 401.23Z" id="a16KE0SVGu"></path><path d="M255.56 395.34L407.4 395.34L407.4 415.71L255.56 415.71L255.56 395.34Z" id="f1h8YDoE4k"></path><path d="M406.89 372.38C416.15 372.38 423.65 379.88 423.65 389.14C423.65 391.9 423.65 384.37 423.65 387.37C423.65 395.96 416.68 402.93 408.09 402.93C374.77 402.93 290.16 402.93 256.79 402.93C248.34 402.93 241.49 396.08 241.49 387.63C241.49 384.58 241.49 390.73 241.49 387.68C241.49 379.23 248.34 372.38 256.79 372.38C290.16 372.38 373.81 372.38 406.89 372.38Z" id="baHlI85s74"></path><path d="M258.02 402.93L257.39 402.92L256.76 402.88L256.14 402.82L255.67 402.75L283.99 372.38L329.77 372.38L301.27 402.93L258.02 402.93Z" id="d2P0LmcOXV"></path><path d="M271.66 387.65C271.66 394.1 266.43 399.34 259.98 399.34C253.53 399.34 248.3 394.1 248.3 387.65C248.3 381.21 253.53 375.97 259.98 375.97C266.43 375.97 271.66 381.21 271.66 387.65Z" id="f1R5dyckpi"></path><path d="M300.57 385.91C301.53 392.28 297.14 398.24 290.76 399.2C284.39 400.17 278.43 395.77 277.47 389.4C276.5 383.02 280.9 377.07 287.27 376.1C293.65 375.14 299.61 379.53 300.57 385.91Z" id="cRFx9rT2Q"></path><path d="M313.05 402.93L341.54 372.38L364.33 372.38L335.84 402.93L313.05 402.93Z" id="b1LLIkZQZl"></path><path d="M328.65 387.65C328.65 394.1 323.41 399.34 316.97 399.34C310.52 399.34 305.28 394.1 305.28 387.65C305.28 381.21 310.52 375.97 316.97 375.97C323.41 375.97 328.65 381.21 328.65 387.65Z" id="a1bsPRDZ1"></path><path d="M358.85 387.65C358.85 394.1 353.61 399.34 347.16 399.34C340.72 399.34 335.48 394.1 335.48 387.65C335.48 381.21 340.72 375.97 347.16 375.97C353.61 375.97 358.85 381.21 358.85 387.65Z" id="b4yR5y4R6A"></path><path d="M388.59 387.65C388.59 394.1 383.35 399.34 376.9 399.34C370.46 399.34 365.22 394.1 365.22 387.65C365.22 381.21 370.46 375.97 376.9 375.97C383.35 375.97 388.59 381.21 388.59 387.65Z" id="d3m2fr8ZCY"></path><path d="M417.28 387.65C417.28 394.1 412.05 399.34 405.6 399.34C399.15 399.34 393.92 394.1 393.92 387.65C393.92 381.21 399.15 375.97 405.6 375.97C412.05 375.97 417.28 381.21 417.28 387.65Z" id="dly4tjAEZ"></path></defs><g><g><use xlink:href="#b1q0mRPMHA" opacity="1" fill="#ecbabe" fill-opacity="1"></use></g><g><use xlink:href="#c6ezftqupd" opacity="1" fill="#ea585f" fill-opacity="1"></use></g><g><use xlink:href="#crtAx1Exg" opacity="1" fill="#040717" fill-opacity="1"></use></g><g><use xlink:href="#a1rXVe80Ll" opacity="1" fill="#3d5655" fill-opacity="1"></use></g><g><use xlink:href="#cotCyz261" opacity="1" fill="#ec6464" fill-opacity="1"></use><g><use xlink:href="#cotCyz261" opacity="1" fill-opacity="0" stroke="#000000" stroke-width="2" stroke-opacity="1"></use></g></g><g><use xlink:href="#bybffPyoq" opacity="1" fill="#000000" fill-opacity="1"></use></g><g><use xlink:href="#b1RM629Cdz" opacity="0.43" fill="#ffffff" fill-opacity="1"></use></g><g><use xlink:href="#a12EH5QqRx" opacity="1" fill="#3d5655" fill-opacity="1"></use></g><g><use xlink:href="#a3Xc4maFZZ" opacity="1" fill="#3d5655" fill-opacity="1"></use></g><g><use xlink:href="#a1bAVbFapd" opacity="1" fill="#3d5655" fill-opacity="1"></use></g><g><use xlink:href="#a2oS9O0Yej" opacity="1" fill="#000000" fill-opacity="1"></use></g><g><use xlink:href="#j5Cc9H1Rz6" opacity="1" fill="#3d5655" fill-opacity="1"></use></g><g><use xlink:href="#d6b2T8WoCz" opacity="0.43" fill="#ffffff" fill-opacity="1"></use></g><g><use xlink:href="#bxpvA5Eei" opacity="1" fill="#323c65" fill-opacity="1"></use></g><g><use xlink:href="#a3xprbkF2" opacity="1" fill="#3d5655" fill-opacity="1"></use></g><g><use xlink:href="#bY6ynHsYy" opacity="1" fill="#202341" fill-opacity="1"></use></g><g><use xlink:href="#aGudlBjo0" opacity="1" fill="#040717" fill-opacity="1"></use></g><g><use xlink:href="#c1mOz9jUp3" opacity="1" fill="#202341" fill-opacity="1"></use></g><g><use xlink:href="#bJ2mbaBCI" opacity="1" fill="#3d5655" fill-opacity="1"></use></g><g><use xlink:href="#d1YN84gbI" opacity="1" fill="#3d5655" fill-opacity="1"></use></g><g><use xlink:href="#d3oSnVcVOf" opacity="1" fill="#3d5655" fill-opacity="1"></use></g><g><use xlink:href="#a1zaFgJRat" opacity="1" fill="#fdff86" fill-opacity="1"></use></g><g><use xlink:href="#e1NRSyTX64" opacity="1" fill="#3d5655" fill-opacity="1"></use></g><g><use xlink:href="#a264BX6cYN" opacity="1" fill="#f5ad21" fill-opacity="1"></use></g><g><use xlink:href="#f3cZmkmPTA" opacity="1" fill="#f5ad21" fill-opacity="1"></use></g><g><use xlink:href="#a3mmOgLHoF" opacity="1" fill="#3d4444" fill-opacity="1"></use></g><g><use xlink:href="#aafXudFjiV" opacity="1" fill="#f5da21" fill-opacity="1"></use></g><g><use xlink:href="#c1fk6tLjDQ" opacity="1" fill="#f5ad21" fill-opacity="1"></use></g><g><use xlink:href="#b2MtV8rOUH" opacity="1" fill="#202341" fill-opacity="1"></use><g><use xlink:href="#b2MtV8rOUH" opacity="1" fill-opacity="0" stroke="#ffffff" stroke-width="1" stroke-opacity="1"></use></g></g><g><use xlink:href="#c1NyYhQBpg" opacity="1" fill="#efdc91" fill-opacity="1"></use></g><g><use xlink:href="#l1ptkh7zCi" opacity="1" fill="#efdc91" fill-opacity="1"></use></g><g><use xlink:href="#a1iasp9mxs" opacity="1" fill="#ffffff" fill-opacity="1"></use></g><g><use xlink:href="#gs9W3s272" opacity="1" fill="#efdc91" fill-opacity="1"></use></g><g><use xlink:href="#b99WNMV3U" opacity="1" fill="#efdc91" fill-opacity="1"></use></g><g><use xlink:href="#b3OYFlbhWc" opacity="1" fill="#ffffff" fill-opacity="1"></use></g><g><use xlink:href="#bQTHeOrN3" opacity="1" fill="#ffffff" fill-opacity="1"></use></g><g><use xlink:href="#a2AKC5eogj" opacity="1" fill="#ffffff" fill-opacity="1"></use></g><g><use xlink:href="#aGXmP8xTh" opacity="1" fill="#202341" fill-opacity="1"></use><g><use xlink:href="#aGXmP8xTh" opacity="1" fill-opacity="0" stroke="#ffffff" stroke-width="1" stroke-opacity="1"></use></g></g><g><use xlink:href="#atrkjuX1T" opacity="1" fill="#4a4f7d" fill-opacity="1"></use></g><g><use xlink:href="#c1P4mkHvMU" opacity="1" fill="#4a4f7d" fill-opacity="1"></use></g><g><use xlink:href="#a1neiGZxp" opacity="1" fill="#4a4f7d" fill-opacity="1"></use></g><g><use xlink:href="#e1TZv370aS" opacity="1" fill="#4a4f7d" fill-opacity="1"></use></g><g><use xlink:href="#d4X3IpYRO" opacity="1" fill="#4a4f7d" fill-opacity="1"></use></g><g><use xlink:href="#eJJmoaBo" opacity="1" fill="#4a4f7d" fill-opacity="1"></use></g><g><use xlink:href="#a6CRoXbfm" opacity="1" fill="#4a4f7d" fill-opacity="1"></use></g><g><use xlink:href="#a1lD2niqQ" opacity="1" fill="#4a4f7d" fill-opacity="1"></use></g><g><use xlink:href="#eiIWQqK" opacity="1" fill="#fdff86" fill-opacity="1"></use></g><g><use xlink:href="#a2DfYiGxj" opacity="1" fill="#dbf3f1" fill-opacity="1"></use></g><g><use xlink:href="#a6iNULicc" opacity="1" fill="#98d4d3" fill-opacity="1"></use></g><g><use xlink:href="#g48dwDDcH" opacity="1" fill="#ffffff" fill-opacity="1"></use></g><g><use xlink:href="#btjAzrIhx" opacity="1" fill="#ffffff" fill-opacity="1"></use></g><g><use xlink:href="#bikxvLDYx" opacity="1" fill="#202341" fill-opacity="1"></use></g><g><use xlink:href="#a16KE0SVGu" opacity="1" fill="#202341" fill-opacity="1"></use></g><g><use xlink:href="#f1h8YDoE4k" opacity="1" fill="#4a7071" fill-opacity="1"></use></g><g><use xlink:href="#baHlI85s74" opacity="1" fill="#98ceea" fill-opacity="1"></use></g><g><use xlink:href="#d2P0LmcOXV" opacity="1" fill="#ffffff" fill-opacity="1"></use></g><g><use xlink:href="#f1R5dyckpi" opacity="1" fill="#202341" fill-opacity="1"></use></g><g><use xlink:href="#cRFx9rT2Q" opacity="1" fill="#202341" fill-opacity="1"></use></g><g><use xlink:href="#b1LLIkZQZl" opacity="1" fill="#ffffff" fill-opacity="1"></use></g><g><use xlink:href="#a1bsPRDZ1" opacity="1" fill="#202341" fill-opacity="1"></use></g><g><use xlink:href="#b4yR5y4R6A" opacity="1" fill="#202341" fill-opacity="1"></use></g><g><use xlink:href="#d3m2fr8ZCY" opacity="1" fill="#202341" fill-opacity="1"></use></g><g><use xlink:href="#dly4tjAEZ" opacity="1" fill="#202341" fill-opacity="1"></use></g></g></svg>